# xmcd
#
# Track frame offsets:
#	150
#	13464
#	25196
#	41200
#	57221
#	72950
#	100130
#	115889
#
# Disc length: 1924 seconds
#
# Revision: 1
# Processed by: cddbd v1.5.2PL0 Copyright (c) Steve Scherf et al.
# Submitted via: audiograbber 1.83.01
#
DISCID=6c078208
DTITLE=Abnormity - Come get some
DYEAR=2008
DGENRE=Metal
TTITLE0=Deaf Eyes
TTITLE1=Ghost of now
TTITLE2=Attitude
TTITLE3=Inverted Torment
TTITLE4=Come what may come
TTITLE5=Soft velvet
TTITLE6=Last journey
TTITLE7=Lands of dust
EXTD=
EXTT0=
EXTT1=
EXTT2=
EXTT3=
EXTT4=
EXTT5=
EXTT6=
EXTT7=
PLAYORDER=
